Coordinates
version=1
nRows=6
nColumns=36
inDegrees=yes

Units are S.I. units (second, meters, Newtons, ...)
If the header above contains a line with 'inDegrees', this indicates whether rotational values are in degrees (yes) or radians (no).

endheader
time	pelvis_tilt	pelvis_list	pelvis_rotation	pelvis_tx	pelvis_ty	pelvis_tz	hip_flexion_r	hip_adduction_r	hip_rotation_r	knee_angle_r	knee_angle_r_beta	ankle_angle_r	subtalar_angle_r	mtp_angle_r	hip_flexion_l	hip_adduction_l	hip_rotation_l	knee_angle_l	knee_angle_l_beta	ankle_angle_l	subtalar_angle_l	mtp_angle_l	lumbar_extension	lumbar_bending	lumbar_rotation	arm_flex_r	arm_add_r	arm_rot_r	elbow_flex_r	pro_sup_r	arm_flex_l	arm_add_l	arm_rot_l	elbow_flex_l	pro_sup_l
      1.07000000	     -2.91892894	     -0.71145714	      2.79427573	      1.16221488	      0.95233195	     -0.22301153	     26.54565647	      1.48883788	     -0.09484488	      7.91904877	      0.13821347	     -1.16912874	     -3.59729347	     -7.31913903	     -7.42580073	      2.11216561	     -6.28596933	      5.63645581	      0.09837471	     16.61399981	      8.15763409	     -7.31913903	     -3.55523170	     -3.58674051	     -7.11605127	     -0.82894912	     -3.17364982	     -8.48700612	     28.10433201	    103.21624693	     19.09530030	    -10.56984729	     -3.72841218	     40.47031015	    104.94819191
      1.08000000	     -3.21782545	     -0.43110942	      2.67832716	      1.17279083	      0.94984376	     -0.22218392	     26.45412418	      1.25039711	      0.29044501	      4.67266237	      0.08155334	     -0.88435476	     -2.37372175	     -7.32186131	     -7.88766357	      2.35542045	     -6.37809714	      5.57927895	      0.09737679	     16.89231309	      8.27888073	     -7.32186131	     -3.21873015	     -3.92039743	     -7.12359877	     -0.97620462	     -3.20806947	     -8.62295686	     27.72279052	    103.23278484	     19.59860688	    -10.62863331	     -3.50644166	     41.24418364	    105.03340473
      1.09000000	     -3.50611628	     -0.17479854	      2.59412708	      1.18337251	      0.94733780	     -0.22133656	     26.51462534	      1.00746655	      0.38952419	      2.14205996	      0.03738600	     -0.45092025	     -1.19975426	     -7.32418258	     -8.31014487	      2.55365939	     -6.44750036	      5.62054065	      0.09809694	     17.14388362	      8.43641931	     -7.32418258	     -2.92119400	     -4.20188399	     -7.11278864	     -1.09648459	     -3.23743947	     -8.82925086	     27.32933771	    103.24416659	     20.08490151	    -10.65842942	     -3.27068615	     42.00719383	    105.11960097
      1.10000000	     -3.78622969	      0.08920857	      2.53841796	      1.19403904	      0.94482784	     -0.22051868	     26.99718951	      0.71411060	     -0.86131277	      0.96062216	      0.01676602	      1.19628922	      1.55559669	     -7.33110048	     -8.66177190	      2.73154515	     -6.75730616	      5.80859808	      0.10137916	     17.52826694	      8.86181519	     -7.33110048	     -2.64344072	     -4.48394281	     -7.17873742	     -1.13835159	     -3.20019977	     -9.29980334	     26.84035335	    103.35902001	     20.42181816	    -10.74751224	     -2.93155064	     42.90672777	    105.20725188
      1.11000000	     -4.14768127	      0.32161182	      2.46246015	      1.20475069	      0.94225530	     -0.21960686	     27.69907677	      0.49129368	     -1.95362026	      0.54990494	      0.00959765	      2.61838369	      3.50744453	     -7.33708874	     -8.84309924	      2.87719092	     -6.88709980	      6.18888167	      0.10801636	     17.82751610	      9.04403786	     -7.33708874	     -2.26627423	     -4.70565878	     -7.14878017	     -1.23817518	     -3.23025952	     -9.55799252	     26.44768790	    103.48258292	     20.78898333	    -10.68219006	     -2.79270214	     43.51674689	    105.24787229
      1.12000000	     -4.32808636	      0.47117521	      2.38602833	      1.21569335	      0.94005820	     -0.21851854	     28.07068198	      0.42087080	     -2.30706863	      0.37954067	      0.00662423	      2.93505377	      3.48115986	     -7.33751271	     -9.28547430	      2.91911399	     -6.88169567	      6.42867920	      0.11220162	     17.85517915	      9.02616715	     -7.33751271	     -2.06783781	     -4.83715879	     -7.10161940	     -1.40829714	     -3.33183108	     -9.62025641	     26.21713440	    103.47578165	     21.17910025	    -10.59627670	     -2.75269790	     43.89178595	    105.28251397
